<?xml version="1.0" encoding="UTF-8"?>
<svg id="Layer_1" data-name="Layer 1" xmlns="http://www.w3.org/2000/svg" version="1.1" viewBox="0 0 1613.15 847.03">
  <defs>
    <style>
      .cls-1 {
        fill: #517c76;
      }

      .cls-1, .cls-2, .cls-3, .cls-4, .cls-5, .cls-6, .cls-7, .cls-8, .cls-9 {
        stroke-width: 0px;
      }

      .cls-2 {
        fill: #4c616c;
      }

      .cls-3 {
        fill: #4d6863;
      }

      .cls-4 {
        fill: #5d7b75;
      }

      .cls-5 {
        fill: #273851;
      }

      .cls-6 {
        fill: #dadddc;
      }

      .cls-7 {
        fill: #558989;
      }

      .cls-8 {
        fill: #2d3b51;
      }

      .cls-9 {
        fill: #25374c;
      }
    </style>
  </defs>
  <g>
    <path class="cls-8" d="M27.32,252.91c0-38.46,7.55-63.98,10.42-92.37,2.51-22.65,2.51-34.87,3.59-47.08.72-6.83,3.96-12.94,13.3-12.94,15.46,0,19.41,17.98,15.81,54.27-1.44,11.5-2.88,20.85-4.31,29.84,16.89-5.75,37.74-9.7,54.99-9.7,13.66,0,21.21,6.11,21.21,16.53,0,7.91-4.68,11.87-14.38,12.58-30.55,2.16-48.16,7.55-67.57,15.82-.71,8.98-1.44,19.41-1.44,31.63,0,57.51,15.09,76.91,44.93,76.91,17.61,0,20.13-6.83,29.47-6.83,6.83,0,10.78,4.31,10.78,11.86,0,13.66-14.02,26.24-41.33,26.24-55.35,0-75.48-42.77-75.48-106.75Z"/>
    <path class="cls-8" d="M178.65,331.99c0-75.12,16.89-125.8,21.2-167.14,1.8-21.93-.36-38.82,1.08-53.55.72-7.91,4.67-15.46,14.38-15.46,15.09.36,21.56,16.53,17.25,62.18-4.31,38.46-16.89,85.55-19.77,137.31,31.27-78.36,55.72-106.75,83.03-106.75,30.91,0,38.1,31.27,43.13,84.1,4.67,46.36,9.35,60.74,16.18,72.97,2.16,3.96,3.95,8.27,3.95,12.94,0,7.91-6.11,14.02-14.74,14.02-17.61,0-31.27-34.87-34.51-74.4-3.59-45.29-7.55-62.91-15.81-76.56-15.09,1.44-48.88,52.12-75.48,136.23-3.96,11.5-9.7,14.37-18.33,14.37-12.22,0-21.56-12.94-21.56-40.25Z"/>
    <path class="cls-8" d="M393.23,278.79c0-48.88,37.02-104.59,95.61-104.59,33.78,0,56.07,17.97,56.07,54.63,0,38.46-38.82,60.39-88.78,60.39-15.45,0-25.52-2.52-31.63-6.47,0,25.87,11.86,46.01,44.57,46.01,51.75,0,66.13-30.19,79.79-30.19,6.47,0,8.62,3.96,8.62,12.22,0,19.41-40.97,47.08-86.62,47.08-54.27,0-77.64-33.07-77.64-79.08ZM426.66,261.9c5.39,0,12.22,2.88,26.96,2.88,35.58,0,60.74-14.74,60.74-36.3,0-16.18-7.55-24.45-26.24-24.45-30.55,0-53.92,25.88-61.46,57.87Z"/>
  </g>
  <g>
    <path class="cls-1" d="M1538.22,133.55s-5.99-.86-13.54,12.95c0,0-25.77,32.09-46.53,46.93,0,0-15.49,17.08-15.8,26.4,0,0-40.98,31.05-55.87,72.14,0,0-46.53,95.48-48.16,163.72,0,0-18.43,51.91,17.18,94.06,0,0,31.49,53.02,31.06,93.44,0,0,8.72,14.67,22.53,27.72,0,0,1.79,34.8-.61,36.51l13.2-.57s-3.25-33.24,5.05-44.7c0,0,18.86-27.41,24.97-25.95,0,0,16.21-66.18,21.2-70.38,0,0,26.67-36.76,30.31-48.59,0,0,49.05-45.2,57.17-75.04,0,0,11.17-75.59,1.51-77.79,0,0,2.84-26.15-1.61-28.64,0,0,.16-32.01,3.38-37.54,0,0-13.33-95.5-29.62-115.75,0,0-18.21-42.86-15.83-48.92Z"/>
    <path class="cls-6" d="M1437.61,706.46s47.74-438.36,87.55-525.61c0,0-104.06,520.83-87.55,525.61Z"/>
    <path class="cls-2" d="M1482.64,305.15c.21-.44.38-.91.45-1.4.88-5.97,1.59-11.95.55-17.95-1.09-6.22-4.67-11.03-8.26-16.03-7.21-10.04-11.91-21.46-13.99-33.64-.79-4.64-8.59-3.78-8.27.99.99,14.55-4.93,28.8-1.95,43.34,1.39,6.8,5.11,12.44,9.55,17.64,4.69,5.51,9.94,10.62,17.02,12.8,3.8,1.17,6.04-2.88,4.91-5.75Z"/>
    <path class="cls-4" d="M1582.72,369.22c-.71-4.46-2.61-8.63-3.25-13.09-.79-5.52-.24-11.35-.18-16.9.14-12.33.41-24.66.31-36.99-.18-20.84-1.78-47.21-9.63-69.87-3.9-26.28-16.64-50.99-28.61-74.55-2.09-3.76-7.54-4.63-11-2.41-3.92,2.51-4.37,7.16-2.41,11.01,1.69,3.03.79,7.71.42,11-.46,4.06-1.09,8.11-1.75,12.13-1.16,7.11-3.56,13.98-4.61,21.07-7.96,24.43-9.89,51.18-13.94,76.21-2.64,16.32-5.75,32.53-9.99,48.52-3.93,14.81-7.26,28.92-3.48,44.13.66,2.65,2.24,4.18,4.13,4.91,3.53,8.21,9.93,14.73,17.18,19.92,9.23,6.61,18.88,11.93,27.14,19.83,8.09,7.73,15.61,15.57,24.89,21.91,5.03,3.43,12.12-1.77,11.69-7.36-.97-12.52-2.14-25.3-.67-37.83,1.24-10.56,5.48-20.88,3.77-31.63Z"/>
    <path class="cls-3" d="M1450.73,517.12c-10.09-1.3-20.1-2.79-30.02-5.1-10.02-2.33-19.74-3.83-30.07-3.36-9.11.42-18.83,1.02-22.89,10.61-3.53,8.33.2,16.45,5.9,22.63.2.67.32,1.34.74,2.03,8.75,14.35,16.3,29.34,22.4,45,5.67,14.55,11.9,30.76,11.98,46.67-1.08,2.42-1.25,5.28.41,7.41,4.99,6.42,9.7,13.04,14.13,19.86,4.56,7.02,14.31,2.96,14.66-4.62,0-.04,0-.07,0-.11.33-.92.56-1.89.65-2.9,1.92-20.65,2.43-41.34,5.24-61.88,1.14-8.34,2.23-16.7,3.43-25.04,3.12-13.88,6.25-27.76,9.37-41.64.87-3.89-1.66-9.01-5.96-9.56Z"/>
    <path class="cls-7" d="M1523.85,147.03c-2.05,2.12-3.89,4.41-5.82,6.62-2.24.69-4.28,2.36-5.28,5.48-.32.98-.79,1.86-1.2,2.79-.06.17-.17.33-.22.51-5.81,12.6-19.6,20.54-29,30.15-5.72,5.85-9.79,12.65-13.94,19.65-4.8,8.1-11.72,13.77-17.35,21.15-10.87,14.25-7.67,34.56-4.94,51.1,3.29,19.89,9.75,38.67,19,56.56,2.37,4.58,6.93,4.65,10.29,2.46,3.63.2,7.39-1.75,8.24-5.92,12.44-60.85,16.37-125.96,51.89-179.05.49-.75.66-1.46.87-2.18,4.25-7.55-5.85-16.27-12.55-9.31Z"/>
    <path class="cls-7" d="M1570.93,442.31c-2.06-2.45-5.38-3.45-8.48-2.51-12.81,3.88-25.41,8.29-35.54,17.38-.27.24-.36.6-.57.88-13,9.38-26.26,18.31-39.63,27.18-13.79,9.14-19.94,20.86-22.94,36.93-3.39,18.14-4.3,36.75-6.8,55.03-2.57,18.79-5.78,37.47-9.53,56.05-.09.46.02.83,0,1.27-.07.67-.11,1.31,0,1.89.06.32.18.59.28.89.18.51.36,1.01.67,1.44,2.98,4.98,11.34,5.72,13.92-.34.06-.08.14-.12.19-.19,16.67-24.99,18.4-56.37,33.84-82.07,17.05-28.4,37.42-54.76,59.87-79.09.82-.89,1.32-2.05,1.66-3.28.99-1.43,2.09-2.77,3.01-4.26,3.76-6.08,7.37-12.25,11.04-18.38,1.63-2.73.96-6.5-.99-8.81Z"/>
  </g>
  <g>
    <path class="cls-9" d="M665.11,253.71c0-48.17,31.99-80.15,79.08-79.8,29.83,0,50.32,11.14,56.07,28.04,3.6-28.75,5.75-62.18,5.75-99.92,0-15.45,6.12-21.2,14.74-21.2,11.5,0,17.96,11.87,17.6,33.07-.71,53.55-6.82,83.75-6.82,130.47,0,76.91,29.47,79.79,29.47,98.48,0,7.9-5.4,15.09-16.53,15.09-16.53,0-31.99-26.24-38.46-61.46-16.17,43.49-39.9,60.75-63.62,60.75-45.29,0-77.28-47.81-77.28-103.52ZM740.59,325.95c25.52,0,46.37-36.66,57.15-104.96-1.08.72-2.51,1.08-3.96,1.08-12.58,0-12.94-16.89-46.01-16.89s-50.32,18.33-50.32,48.53c0,39.9,21.57,72.24,43.13,72.24Z"/>
    <path class="cls-9" d="M905.58,389.57c0-7.55,4.31-12.58,13.3-12.58,12.21,0,16.52,11.5,54.27,11.5,34.86,0,45.64-23.72,45.64-60.02,0-19.77-2.87-35.94-4.66-63.62-17.61,39.54-40.62,48.16-57.87,48.16-40.27,0-64.71-33.06-64.71-109.63,0-47.8,8.27-57.15,19.42-57.15s16.17,7.19,15.09,28.39c-3.23,60.39,2.52,107.11,28.39,107.11,30.56,0,48.89-51.4,56.07-117.89,1.44-13.66,4.31-17.26,12.94-17.26,10.42,0,21.21,8.62,18.34,36.3-6.12,60.74,8.26,76.91,8.26,145.57,0,64.7-31.63,92.01-75.84,92.01s-68.65-11.5-68.65-30.91Z"/>
    <path class="cls-9" d="M1093.57,256.22c0-48.88,37.02-104.59,95.61-104.59,33.78,0,56.06,17.97,56.06,54.63,0,38.46-38.81,60.39-88.78,60.39-15.44,0-25.51-2.52-31.62-6.47,0,25.87,11.86,46.01,44.57,46.01,51.76,0,66.13-30.19,79.79-30.19,6.47,0,8.62,3.96,8.62,12.22,0,19.41-40.97,47.08-86.62,47.08-54.27,0-77.64-33.07-77.64-79.08ZM1127.01,239.33c5.39,0,12.21,2.88,26.95,2.88,35.58,0,60.75-14.74,60.75-36.3,0-16.18-7.55-24.45-26.25-24.45-30.54,0-53.9,25.88-61.45,57.87Z"/>
  </g>
  <g>
    <path class="cls-5" d="M32.55,779.12c0-7.91,5.03-12.57,12.22-12.57,8.27,0,12.94,6.82,23,6.82,14.02,0,21.93-13.65,21.93-39.54,0-110.7-17.61-154.91-17.61-183.3,0-13.66,7.19-19.77,15.46-19.77s14.74,3.96,17.61,20.85c11.14,64.34,16.17,116.1,16.17,179.35,0,48.53-19.77,73.32-49.96,73.32-24.8,0-38.82-11.86-38.82-25.16ZM62.02,473.97c0-13.3,10.42-22.65,24.45-22.65,18.33,0,29.11,15.1,29.11,29.11,0,9.35-6.11,20.13-22.65,20.13-17.61,0-30.91-11.5-30.91-26.59Z"/>
    <path class="cls-5" d="M161.95,606.96c0-53.92,46.37-89.14,67.57-89.14,2.51,0,4.67.36,6.83,1.08,6.83-2.52,14.02-4.31,21.21-4.31,51.03,0,81.95,34.51,81.95,89.49s-35.94,94.17-83.39,94.17c-54.99,0-94.17-38.46-94.17-91.29ZM255.04,669.14c31.99,0,52.48-25.87,52.48-66.49,0-36.3-17.61-58.95-46.36-58.95-15.09,0-22.65,6.11-32.35,15.82-11.14,11.14-11.86,19.05-21.56,19.05-2.52,0-4.68-.72-6.11-1.44-5.03,8.27-7.19,17.61-7.19,28.04,0,39.18,23.72,63.98,61.1,63.98Z"/>
    <path class="cls-5" d="M381.21,581.8c0-22.65,3.59-42.05,10.42-60.39,2.51-6.83,6.83-10.78,14.38-10.78,9.35,0,15.09,6.83,15.09,16.89,0,15.09-8.27,22.65-8.27,54.63,0,46.37,21.57,79.08,53.55,79.08,29.48,0,46.37-34.15,46.37-97.05,0-20.13-2.16-28.39-2.16-39.9,0-9.35,3.23-14.38,11.5-14.38,13.66,0,22.28,11.86,22.28,52.12,0,86.98-30.19,129.03-77.28,129.03-60.02,0-85.9-57.5-85.9-109.26Z"/>
    <path class="cls-5" d="M603.7,684.59c0-46.72-2.16-94.16-8.98-118.97-2.88-11.5-3.96-16.17-3.96-22.64,0-8.27,4.67-14.38,14.02-14.38,12.58,0,22.28,14.74,25.16,65.78,16.89-49.96,48.88-68.29,76.2-68.29,11.86,0,15.81,6.47,15.81,14.74,0,6.83-3.96,12.94-14.38,16.17-49.24,11.87-63.61,60.03-68.65,125.08-1.8,23-6.11,28.74-17.61,28.74s-17.61-10.78-17.61-26.24Z"/>
    <path class="cls-5" d="M876.88,616.66c0-30.55-1.44-43.13-5.75-51.04-.71-.36-1.79-.36-2.87-.36-19.41,0-52.84,51.4-71.89,124-5.39,21.21-10.78,28.39-20.84,28.39-17.98,0-26.96-24.08-26.96-57.5,0-48.88,10.42-67.57,10.42-111.06,0-8.63,4.67-14.02,12.94-14.02,10.78,0,17.26,7.19,17.26,25.52,0,26.95-9.71,48.52-10.42,93.45,24.08-78.36,58.94-120.05,90.94-120.05,25.16,0,38.1,21.57,38.1,55.35,0,56.07-.73,87.34,15.09,100.63,4.68,4.31,6.47,8.27,6.47,14.38,0,6.83-5.03,13.3-16.17,13.3-21.56,0-36.3-28.03-36.3-101Z"/>
    <path class="cls-5" d="M960.99,660.51c0-57.87,47.45-122.56,107.83-122.56,10.78,0,19.04,6.11,19.04,17.25,0,6.11-3.6,10.42-10.78,11.14-50.68,6.47-83.75,50.68-83.75,95.25,0,9.7.73,16.89,3.6,26.23,4.68,2.16,9.7,2.88,16.53,2.88,30.91,0,56.44-37.02,67.57-106.75,1.81-8.99,6.48-14.38,14.74-14.38,11.5,0,20.13,9.7,22.29,24.08,6.11,41.69,12.57,67.22,37.38,98.84,8.26,9.7,1.79,27.68-10.79,27.68-6.82,0-10.78-2.88-14.38-7.55-14.37-19.42-26.59-38.1-33.42-75.48-17.25,61.46-51.76,84.1-82.67,84.1-32.71,0-53.19-24.08-53.19-60.74Z"/>
    <path class="cls-5" d="M1188.52,577.12c0-60.74,4.31-96.33,10.42-134.79,3.23-18.33,7.55-24.44,15.82-24.44,9.7,0,15.81,7.55,15.81,26.6,0,26.95-9.7,57.87-9.7,139.81,0,62.54,8.99,80.15,20.5,80.15,10.05,0,12.21-3.96,17.25-3.96,8.26,0,10.78,5.39,10.78,12.22,0,12.93-14.38,22.28-29.84,22.28-27.68,0-51.03-13.3-51.03-117.89Z"/>
  </g>
</svg>